<?xml version="1.0" encoding="UTF-8"?><svg id="uuid-83ee0bc4-8700-4018-9322-2018979f7b32" xmlns="http://www.w3.org/2000/svg" viewBox="0 0 156.43 36.42"><defs><style>.uuid-408b6718-42e0-4141-a3d8-82a3d6fea7c3{fill:#0a0a0a;}</style></defs><g id="uuid-6bb184f6-72d9-4ab0-ace3-5b965272787d"><path class="uuid-408b6718-42e0-4141-a3d8-82a3d6fea7c3" d="M2.86,22.1c3.7,8.63,9.65,14.45,14.49,14.31,0,0,0,0,.01,0,2.09.02,4.42-1.1,6.76-3.29,2.87-2.69,5.47-6.73,7.33-11.36,4-10,3.24-19.39-1.74-21.38-.63-.25-1.29-.38-1.98-.38-2.07,0-4.39,1.13-6.7,3.29-2.87,2.69-5.47,6.73-7.33,11.36-1.86,4.64-2.76,9.35-2.53,13.28.08,1.38.31,2.6.65,3.67-2.55-2.33-5.1-6.03-6.96-10.37-1.84-4.3-2.8-8.67-2.68-12.29.11-3.28,1.11-5.57,2.76-6.27,1.81-.78,4.5.36,7.18,3.03.42.42,1.11.42,1.54,0,.42-.42.42-1.11,0-1.54C11.09,1.62,8.46.27,6.17.27c-.73,0-1.43.14-2.08.42C1.6,1.75.15,4.66.01,8.89c-.13,3.93.89,8.63,2.85,13.22ZM15.73,15.47c.4-1,.85-1.96,1.31-2.9.49.93.97,1.88,1.39,2.86,1.56,3.64,2.5,7.45,2.66,10.72.03.6.58,1.11,1.14,1.03.6-.03,1.06-.54,1.03-1.14-.17-3.57-1.15-7.54-2.84-11.47-.63-1.48-1.36-2.89-2.14-4.23,1.29-2.15,2.71-4.04,4.24-5.46,2.4-2.24,4.72-3.15,6.38-2.49,3.31,1.33,4.31,9.1.52,18.56-1.74,4.35-4.15,8.11-6.8,10.59-1.88,1.76-3.72,2.7-5.23,2.7-.41,0-.8-.07-1.16-.21-1.66-.67-2.72-2.93-2.91-6.2-.2-3.62.64-8,2.38-12.35Z"/><path class="uuid-408b6718-42e0-4141-a3d8-82a3d6fea7c3" d="M52,8.83c-3.6,0-6.16.89-8.38,3.34l.11,3.56c1.37-2.71,4.52-5.15,8.05-5.15,3.78,0,5.59,1.9,5.69,5.24h.02v4.25c0,3.71-3,6.04-6.53,6.04-2.45,0-4.34-2.34-4.34-4.41,0-2.52,2.41-4.64,5.08-4.64.97,0,2.2.18,3.47.62v-1.12c-1.39-.32-2.7-.43-3.73-.43-4.9,0-7.97,2.19-7.97,5.82,0,3.41,2.71,5.64,6.86,5.64,3.3,0,5.9-1.56,7.05-4.3h.07v3.86h3.12v-11.09c0-4.75-3.45-7.23-8.57-7.23Z"/><path class="uuid-408b6718-42e0-4141-a3d8-82a3d6fea7c3" d="M71.47,25.89c-3.15,0-4.15-2.26-4.15-5.67v-10.94h-2.89v11.79c0,3.78,2.19,6.53,6.27,6.53,1.67,0,2.88-.41,3.8-1.09v-1.53c-.68.55-1.54.92-2.65.92h-.37Z"/><polygon class="uuid-408b6718-42e0-4141-a3d8-82a3d6fea7c3" points="76.81 18.03 76.81 18.99 76.81 23.51 76.85 24.4 76.85 27.15 79.7 27.15 79.7 9.27 76.81 9.27 76.81 18.03"/><path class="uuid-408b6718-42e0-4141-a3d8-82a3d6fea7c3" d="M90.43,8.94c-2.08.22-3.82,2.15-4.15,4.01v-3.67h-3.04v17.87h3.04v-9.27c.3-4.3,1.85-6.05,2.78-6.64.37-.26.82-.44,1.37-.44,1.52,0,3.08,1.19,3.71,2.52l.41-3.6c-1.04-.63-2-.85-3.04-.85-.33,0-.7.04-1.08.07Z"/><polygon class="uuid-408b6718-42e0-4141-a3d8-82a3d6fea7c3" points="122.82 23.66 117.59 9.27 113.96 9.27 122.3 27.15 123.41 27.15 131.72 9.27 128.38 9.27 122.82 23.66"/><path class="uuid-408b6718-42e0-4141-a3d8-82a3d6fea7c3" d="M141.48,8.83c-3.6,0-6.16.89-8.38,3.34l.11,3.56c1.37-2.71,4.52-5.15,8.05-5.15,3.89,0,5.71,2,5.71,5.53v3.97c0,3.71-3,6.04-6.53,6.04-2.45,0-4.34-2.34-4.34-4.41,0-2.52,2.41-4.64,5.08-4.64.97,0,2.2.18,3.47.62v-1.12c-1.39-.32-2.7-.43-3.73-.43-4.9,0-7.97,2.19-7.97,5.82,0,3.41,2.71,5.64,6.86,5.64,3.3,0,5.9-1.56,7.05-4.3h.07v3.86h3.12v-11.09c0-4.75-3.45-7.23-8.57-7.23Z"/><path class="uuid-408b6718-42e0-4141-a3d8-82a3d6fea7c3" d="M155.34,10.41c0-.54-.38-.89-.95-.89h-1.22v3.06h.4v-1.28h.65l.7,1.28h.49l-.88-1.32c.48-.04.8-.38.8-.86ZM153.58,11.02v-1.22h.8c.4,0,.53.23.53.61s-.14.61-.53.61h-.8Z"/><path class="uuid-408b6718-42e0-4141-a3d8-82a3d6fea7c3" d="M154.13,8.83c-1.41,0-2.29.9-2.29,2.24s.88,2.24,2.29,2.24,2.3-.9,2.3-2.24-.88-2.24-2.3-2.24ZM154.13,13.17c-1.33,0-2.03-.85-2.03-2.11s.7-2.11,2.03-2.11,2.01.86,2.01,2.11-.67,2.11-2.01,2.11Z"/><path class="uuid-408b6718-42e0-4141-a3d8-82a3d6fea7c3" d="M104.83,8.83c-5.34,0-8.94,3.71-8.94,9.38s3.6,9.38,9.42,9.38c2.45,0,6.6-.78,7.86-5.78l-1.15-1.37c-1.11,4.45-4.08,5.49-6.45,5.49-4.45,0-6.27-2.75-6.53-7.19-.04-.5,0-1.08,0-1.52.14-3.7,1.85-7.08,5.96-7.08s6.27,4.08,5.71,7.19h-10.09c-.02.43-.02.91,0,1.41h12.64c0-.41.04-.7.04-1.22,0-5.19-3.3-8.68-8.49-8.68Z"/></g></svg>