<?xml version="1.0" encoding="UTF-8"?><svg id="uuid-70d5e5c3-7b16-4194-9c55-7a4cf3429451" xmlns="http://www.w3.org/2000/svg" viewBox="0 0 157.01 23.79"><defs><style>.uuid-02a2aa68-9b36-4c4c-8c9a-6ee60a6ea4d1{fill:#0a0a0a;}</style></defs><g id="uuid-a476b5b3-58fb-49ee-a174-56540a444f15"><path class="uuid-02a2aa68-9b36-4c4c-8c9a-6ee60a6ea4d1" d="M46.76,14.4h-9.29l-2.89,9.06h-2.69L39.38.33h5.51l7.45,23.13h-2.66l-2.92-9.06ZM46.04,12.11l-3.54-11.03h-.75l-3.51,11.03h7.81Z"/><path class="uuid-02a2aa68-9b36-4c4c-8c9a-6ee60a6ea4d1" d="M55.86,9.09c0-1.54.72-2.3,2.26-2.23h9.06s0,2.29,0,2.29h-8.63v14.31h-2.69v-14.37Z"/><path class="uuid-02a2aa68-9b36-4c4c-8c9a-6ee60a6ea4d1" d="M76.86,6.82c3.15,0,7.19,1.77,7.61,6.5h-2.72c-.46-3.12-2.53-4.2-4.89-4.2-3.87,0-5.64,2.82-5.64,6.17s1.77,6.2,5.64,6.2c2.36,0,4.43-1.08,4.89-4.2h2.72c-.43,4.72-4.46,6.5-7.61,6.5-5.28,0-8.33-3.77-8.33-8.5s3.05-8.47,8.33-8.47Z"/><path class="uuid-02a2aa68-9b36-4c4c-8c9a-6ee60a6ea4d1" d="M103.74,13.48v9.98h-2.66v-9.61c0-3.41-1.35-4.73-4.13-4.73-3.44,0-5.87,2.72-5.87,7.12v7.22h-2.69V.33h2.69v9.64l-.43,1.87h.76c.66-2.95,2.72-5.02,6.27-5.02s6.07,2.13,6.07,6.66Z"/><path class="uuid-02a2aa68-9b36-4c4c-8c9a-6ee60a6ea4d1" d="M107.16,21.16h4.59v-12.01l-3.38.3v-2.3l3.77-.33c1.54-.13,2.13.72,2.13,1.97v12.37h4.59v2.3h-11.71v-2.3ZM110.24,2.26c0-1.25,1.02-2.26,2.36-2.26s2.36,1.02,2.36,2.26c0,1.31-1.05,2.3-2.36,2.3s-2.36-.98-2.36-2.3Z"/><path class="uuid-02a2aa68-9b36-4c4c-8c9a-6ee60a6ea4d1" d="M129.34,6.82c5.18,0,8.56,3.74,8.56,8.47s-3.38,8.5-8.56,8.5-8.63-3.74-8.63-8.5,3.41-8.47,8.63-8.47ZM129.34,21.49c3.84,0,5.91-2.79,5.91-6.2s-2.07-6.17-5.91-6.17-5.94,2.79-5.94,6.17,2.07,6.2,5.94,6.2Z"/><path class="uuid-02a2aa68-9b36-4c4c-8c9a-6ee60a6ea4d1" d="M144.34,16.24v7.22h-2.69V7.15h2.69v2.82l-.43,1.87h.76c.66-2.95,2.72-5.02,6.27-5.02s6.07,2.13,6.07,6.66v9.98h-2.66v-9.61c0-3.41-1.35-4.73-4.13-4.73-3.44,0-5.87,2.72-5.87,7.12Z"/><polygon class="uuid-02a2aa68-9b36-4c4c-8c9a-6ee60a6ea4d1" points="4.71 21.25 10.83 10.65 9.28 7.96 4.04 17.04 4.04 17.04 .33 23.46 18.23 23.46 16.96 21.25 4.71 21.25"/><polygon class="uuid-02a2aa68-9b36-4c4c-8c9a-6ee60a6ea4d1" points="27.05 .33 18.36 .33 19.91 3.02 24.36 3.02 24.36 19.72 13.17 .33 0 .33 0 15.05 2.69 10.38 2.69 3.02 11.62 3.02 23.41 23.46 27.05 23.46 27.05 .33"/></g></svg>