<?xml version="1.0" encoding="UTF-8"?><svg id="uuid-5ea48795-4059-4f09-989a-c3e7cd5aaaf2" xmlns="http://www.w3.org/2000/svg" viewBox="0 0 189.21 21.22"><defs><style>.uuid-4253f59e-8698-4b56-a391-b223f9bccda0{fill:#0a0a0a;}</style></defs><g id="uuid-c0ade2d7-cb4a-47b5-9989-4c7513440762"><polygon class="uuid-4253f59e-8698-4b56-a391-b223f9bccda0" points="25.97 3.74 28.53 3.74 22.25 14.94 16.62 14.94 18.71 11.21 14.78 11.21 10.6 18.68 24.97 18.68 35.43 0 28.07 0 25.97 3.74"/><polygon class="uuid-4253f59e-8698-4b56-a391-b223f9bccda0" points="13.21 3.74 18.96 3.74 16.87 7.47 20.8 7.47 24.98 0 10.46 0 0 18.68 7.41 18.68 9.5 14.94 6.94 14.94 13.21 3.74"/><polygon class="uuid-4253f59e-8698-4b56-a391-b223f9bccda0" points="52.75 8.01 44.56 8.01 44.56 2.91 41.23 2.91 41.23 12.74 41.23 12.74 41.23 13.46 41.23 15.99 44.56 15.99 44.56 13.46 43.98 13.46 44.56 13.46 44.56 10.89 52.75 10.89 52.75 15.99 56.06 15.99 56.06 2.91 52.75 2.91 52.75 8.01"/><path class="uuid-4253f59e-8698-4b56-a391-b223f9bccda0" d="M65.06,12.17h-.11l-3.93-9.27h-3.42l5.71,13.02-1.11,2.7h-2.97v2.59h3.05c.9,0,1.56-.22,1.97-.67.41-.44.8-1.06,1.14-1.86l1.13-2.7,5.6-13.08h-3.29l-3.79,9.27Z"/><path class="uuid-4253f59e-8698-4b56-a391-b223f9bccda0" d="M85.98,3.48c-.42-.25-.88-.44-1.39-.58-.61-.17-1.28-.26-2.02-.26-.7,0-1.33.09-1.9.26-.32.09-.62.2-.89.35-.77.41-1.38.99-1.83,1.74h-.92v-2.09h-3.34v3.25h1.61v15.07h3.25v-7.13h.09c.39.68.94,1.21,1.66,1.59.71.38,1.56.57,2.55.57,1.25,0,2.32-.28,3.21-.84.89-.56,1.57-1.35,2.04-2.37.47-1.02.71-2.22.71-3.6s-.24-2.58-.72-3.6c-.48-1.02-1.18-1.81-2.1-2.37ZM84.65,12.38c-.6.71-1.49,1.06-2.67,1.06-1.03,0-1.86-.29-2.49-.88-.63-.59-.94-1.39-.94-2.41v-1.4c0-1.02.31-1.82.94-2.41.62-.59,1.45-.88,2.49-.88,1.18,0,2.07.35,2.67,1.06.6.71.9,1.68.9,2.93s-.3,2.23-.9,2.93Z"/><path class="uuid-4253f59e-8698-4b56-a391-b223f9bccda0" d="M100.62,3.42c-.41-.22-.87-.39-1.35-.51-.64-.17-1.33-.26-2.09-.26s-1.46.09-2.11.26c-.52.13-1.01.31-1.47.56-1.02.54-1.8,1.32-2.36,2.33-.55,1.01-.83,2.21-.83,3.61s.28,2.61.84,3.63c.56,1.03,1.35,1.82,2.39,2.38,1.03.56,2.25.84,3.66.84,1.67,0,3.06-.39,4.15-1.17,1.1-.78,1.8-1.86,2.1-3.24h-3.27c-.2.6-.56,1.04-1.06,1.34-.5.3-1.15.45-1.95.45-1.08,0-1.94-.29-2.58-.88-.65-.59-1.03-1.44-1.14-2.54h10.07v-1.13c0-1.32-.26-2.47-.78-3.44-.52-.97-1.27-1.71-2.22-2.22ZM93.62,8.01c.2-.89.61-1.57,1.22-2.05.61-.48,1.39-.72,2.33-.72s1.72.24,2.29.71c.57.47.92,1.16,1.05,2.06h-6.89Z"/><path class="uuid-4253f59e-8698-4b56-a391-b223f9bccda0" d="M112.41,2.91c-.51.11-.98.29-1.42.54-.76.45-1.32,1.11-1.68,1.99h-.92v-2.53h-3.31v3.25h1.61v9.84h3.21v-6.67c0-1.13.29-2.04.88-2.73.59-.68,1.47-1.03,2.65-1.03h1.24v-2.79h-1.09c-.41,0-.8.05-1.18.13Z"/><polygon class="uuid-4253f59e-8698-4b56-a391-b223f9bccda0" points="123.86 12.31 123.75 12.31 120.08 2.91 116.5 2.91 121.78 15.99 125.69 15.99 130.97 2.91 127.49 2.91 123.86 12.31"/><rect class="uuid-4253f59e-8698-4b56-a391-b223f9bccda0" x="133.14" y="2.91" width="3.25" height="13.08"/><path class="uuid-4253f59e-8698-4b56-a391-b223f9bccda0" d="M146.45,8.27l-2.94-.57c-.54-.1-.93-.25-1.18-.46-.25-.2-.37-.47-.37-.81,0-.45.2-.79.59-1.03.39-.23.96-.35,1.7-.35.83,0,1.46.15,1.91.45s.75.77.91,1.43h3.14c-.12-1.37-.68-2.42-1.69-3.17-.53-.39-1.16-.67-1.88-.86-.66-.17-1.39-.26-2.21-.26s-1.57.09-2.22.26c-.7.18-1.31.46-1.81.84-.97.74-1.46,1.72-1.46,2.96,0,1.92,1.28,3.13,3.84,3.62l2.88.54c.6.12,1.02.28,1.28.5.25.22.38.52.38.92,0,.97-.84,1.46-2.51,1.46-.99,0-1.74-.16-2.27-.49-.52-.33-.84-.83-.94-1.52h-3.16c.09,1.42.68,2.53,1.77,3.32,1.09.79,2.58,1.19,4.47,1.19s3.23-.37,4.21-1.11c.97-.74,1.46-1.77,1.46-3.1,0-1.03-.31-1.85-.94-2.46-.63-.61-1.61-1.05-2.94-1.31Z"/><path class="uuid-4253f59e-8698-4b56-a391-b223f9bccda0" d="M165.43,2.91h-3.25v7.28c0,1-.29,1.78-.87,2.33-.58.55-1.42.83-2.51.83-1.03,0-1.81-.26-2.33-.77-.52-.52-.79-1.28-.79-2.3V2.91h-3.25v8.03c0,1.63.48,2.92,1.45,3.87.97.95,2.34,1.43,4.13,1.43,1.16,0,2.13-.2,2.89-.6.76-.4,1.4-.98,1.91-1.73h.92v2.09h3.34v-3.25h-1.64V2.91Z"/><path class="uuid-4253f59e-8698-4b56-a391-b223f9bccda0" d="M180.79,7.73c0-1.66-.5-2.92-1.5-3.78-.57-.49-1.3-.82-2.16-1.04-.66-.16-1.39-.26-2.23-.26s-1.56.09-2.23.26c-.72.18-1.35.46-1.9.84-1.05.74-1.71,1.8-1.97,3.2h3.25c.33-1.13,1.29-1.7,2.86-1.7,1.86,0,2.79.8,2.79,2.4v.52h-3.99c-1.66,0-2.93.35-3.8,1.05-.88.7-1.32,1.69-1.32,2.97s.43,2.2,1.3,2.94c.86.74,2.06,1.11,3.59,1.11,1.1,0,2.04-.2,2.8-.61.76-.41,1.37-.98,1.82-1.72h.92v2.09h3.34v-3.25h-1.55v-5.02ZM177.69,10.69c0,.57-.16,1.08-.49,1.54-.33.46-.77.82-1.34,1.09-.57.27-1.21.4-1.92.4s-1.27-.15-1.67-.45c-.4-.3-.6-.72-.6-1.25,0-1.09.73-1.64,2.2-1.64h3.82v.3Z"/><polygon class="uuid-4253f59e-8698-4b56-a391-b223f9bccda0" points="187.59 12.74 187.59 2.91 184.39 2.91 184.39 9.58 184.39 13.46 184.98 13.46 185.89 13.46 185.89 15.99 189.21 15.99 189.21 13.46 189.21 12.74 187.59 12.74"/></g></svg>