<?xml version="1.0" encoding="UTF-8"?><svg id="uuid-ef49746d-d761-4f1e-a6a0-d7e9e292afbb" xmlns="http://www.w3.org/2000/svg" viewBox="0 0 147.7 35.67"><g id="uuid-03ac9a67-4493-4b9a-96d4-27b75083e670"><path d="M3.45,7.31l-2.94,1.29c-.2.09-.33.29-.33.51v5.6c.01.4.42.67.79.51l.93-.41c.37-.16.78.11.78.51v5.11c.01.4.42.67.79.51l2.94-1.29c.2-.09.33-.29.33-.51v-5.6c-.01-.4-.42-.67-.79-.51l-.93.41c-.37.16-.78-.11-.78-.51v-5.11c-.01-.4-.42-.67-.79-.51Z"/><path d="M18.69,2.02L16.11.11c-.18-.13-.42-.15-.61-.03l-4.85,2.8c-.35.2-.38.69-.05.93l.82.6c.32.24.3.73-.05.93l-4.43,2.56c-.35.2-.38.69-.05.93l2.58,1.91c.18.13.42.15.61.03l4.85-2.8c.35-.2.38-.69.05-.93l-.82-.6c-.32-.24-.3-.73.05-.93l4.43-2.56c.35-.2.38-.69.05-.93Z"/><path d="M30.87,12.59l.37-3.19c.03-.22-.08-.44-.27-.55l-4.85-2.81c-.35-.2-.79.02-.83.42l-.12,1.01c-.05.4-.49.62-.83.42l-4.42-2.56c-.35-.2-.79.02-.83.42l-.37,3.19c-.03.22.08.44.27.55l4.85,2.81c.35.2.79-.02.83-.42l.12-1.01c.05-.4.49-.62.83-.42l4.42,2.56c.35.2.79-.02.83-.42Z"/><path d="M27.78,28.42l2.95-1.27c.2-.09.34-.29.34-.51l.02-5.6c0-.4-.41-.67-.78-.51l-.93.4c-.37.16-.78-.11-.78-.51l.02-5.11c0-.4-.41-.67-.78-.51l-2.95,1.27c-.2.09-.34.29-.34.51l-.02,5.6c0,.4.41.67.78.51l.93-.4c.37-.16.78.11.78.51l-.02,5.11c0,.4.41.67.78.51Z"/><path d="M12.51,33.63l2.57,1.92c.18.13.42.15.61.04l4.86-2.78c.35-.2.38-.69.06-.93l-.82-.61c-.32-.24-.29-.73.06-.93l4.44-2.54c.35-.2.38-.69.06-.93l-2.57-1.92c-.18-.13-.42-.15-.61-.04l-4.86,2.78c-.35.2-.38.69-.06.93l.82.61c.32.24.29.73-.06.93l-4.44,2.54c-.35.2-.38.69-.06.93Z"/><path d="M.39,23L0,26.19c-.03.22.08.44.27.55l4.83,2.83c.35.2.79-.02.84-.42l.12-1.01c.05-.4.49-.62.84-.42l4.41,2.59c.35.2.79-.02.84-.42l.38-3.19c.03-.22-.08-.44-.27-.55l-4.83-2.83c-.35-.2-.79.02-.84.42l-.12,1.01c-.05.4-.49.62-.84.42l-4.41-2.59c-.35-.2-.79.02-.84.42Z"/><path d="M39.62,21.16c-2.2-7.08,2.37-13.24,9.04-13.24,5.55,0,9.6,4.27,9.6,9.68,0,6.43-5.65,11.13-12.69,9.27-2.83-.75-5.08-2.92-5.95-5.71ZM48.66,24.12c3.39,0,6-2.58,6-6.28s-2.61-6.28-6-6.28-6.02,2.63-6.02,6.28,2.63,6.28,6.02,6.28Z"/><path d="M60.86,8.39h3.55v3.91h.75c.54-1.79,2.26-4.23,5.99-4.23v3.84h-1.22c-3.73,0-5.48,2.65-5.48,5.63v9.28h-3.58V8.39Z"/><path d="M73.84,8.85v-.47h3.69l5.16,15.27h.75l4.98-15.27h3.76v.47l-6.24,17.96h-5.88l-6.24-17.96Z"/><path d="M93.27,21.36c0-3.44,2.69-5.77,6.74-5.77h5.77v-.5c0-2.26-1.61-4.05-4.34-4.05s-3.94,1.61-4.19,3.12l-3.19-.9c.79-3.26,3.55-5.34,7.38-5.34,5.2,0,7.85,3.48,7.85,7.17v7.92c0,.65.36.86.93.86h.57v2.94h-1.79c-1.9,0-2.87-1.15-2.87-2.69v-.75h-.72c-.5,2.37-2.55,3.91-5.56,3.91-3.87,0-6.6-2.4-6.6-5.91ZM100.54,24.27c3.76,0,5.23-2.72,5.23-5.34v-.5h-5.38c-2.26,0-3.51,1.15-3.51,2.87,0,1.86,1.65,2.98,3.66,2.98Z"/><path d="M113.67,8.39h3.55v3.91h.75c.54-1.79,2.26-4.23,5.99-4.23v3.84h-1.22c-3.73,0-5.48,2.65-5.48,5.63v9.28h-3.58V8.39Z"/><path d="M125.67,21.36c0-3.44,2.69-5.77,6.74-5.77h5.77v-.5c0-2.26-1.61-4.05-4.34-4.05s-3.94,1.61-4.19,3.12l-3.19-.9c.79-3.26,3.55-5.34,7.38-5.34,5.2,0,7.85,3.48,7.85,7.17v7.92c0,.65.36.86.93.86h.57v2.94h-1.79c-1.9,0-2.87-1.15-2.87-2.69v-.75h-.72c-.5,2.37-2.55,3.91-5.56,3.91-3.87,0-6.6-2.4-6.6-5.91ZM132.95,24.27c3.76,0,5.23-2.72,5.23-5.34v-.5h-5.38c-2.26,0-3.51,1.15-3.51,2.87,0,1.86,1.65,2.98,3.66,2.98Z"/><path d="M146.72,8.65c.31.17.55.41.72.72.17.31.26.64.26,1.02s-.09.71-.27,1.02c-.18.31-.42.55-.73.73-.31.18-.65.27-1.02.27s-.71-.09-1.02-.27c-.31-.18-.55-.42-.72-.73-.18-.31-.27-.64-.27-1.01s.09-.71.26-1.01c.18-.31.42-.55.72-.73.31-.18.65-.27,1.02-.27s.72.09,1.02.26ZM146.6,11.95c.27-.16.49-.38.65-.66.16-.28.24-.58.24-.91s-.08-.64-.24-.91c-.16-.27-.37-.49-.64-.64-.27-.16-.58-.23-.91-.23s-.64.08-.92.24-.49.38-.65.65c-.16.28-.24.58-.23.91s.08.63.24.91c.16.28.37.49.65.65.27.16.58.24.91.24s.64-.08.91-.24ZM146.57,10.46c-.09.12-.22.21-.38.27l.54.82h-.31s-.5-.77-.5-.77c-.03,0-.07,0-.13,0h-.59s0,.76,0,.76h-.3s0-2.3,0-2.3h.89c.28,0,.5.07.67.2.16.14.25.32.25.56,0,.17-.04.32-.13.45ZM146.25,10.4c.11-.09.17-.22.17-.39s-.06-.29-.17-.38c-.11-.09-.27-.13-.47-.13h-.58s0,1.04,0,1.04h.58c.2,0,.36-.05.47-.14Z"/></g></svg>