<?xml version="1.0" encoding="UTF-8"?><svg id="uuid-8eb2912c-08e7-472e-9af2-8137d01076af" xmlns="http://www.w3.org/2000/svg" viewBox="0 0 133.04 27.16"><defs><style>.uuid-b0ce5e34-cd8c-47cb-b6ad-e40206d302a1{fill:#0a0a0a;}</style></defs><g id="uuid-793d15cf-b7e8-475c-a091-372bff4b2b60"><path class="uuid-b0ce5e34-cd8c-47cb-b6ad-e40206d302a1" d="M33.59,24.12c-1.87,0-3.3-.46-4.28-1.37-.98-.91-1.47-2.13-1.47-3.63,0-.99.26-1.87.79-2.65.53-.77,1.25-1.34,2.18-1.71.77-.3,1.78-.5,3-.6,1.23-.1,3.22-.15,5.97-.15v-1.07c0-2.71-1.55-4.07-4.65-4.07-2.67,0-4.22,1.09-4.65,3.26h-2.23c.24-1.59.92-2.86,2.05-3.81,1.13-.95,2.77-1.42,4.92-1.42,2.3,0,4.02.54,5.15,1.61,1.13,1.08,1.69,2.56,1.69,4.45v10.75h-2.2v-2.39c-1.14,1.85-3.24,2.78-6.3,2.78ZM39.78,15.92c-2.95,0-4.96.06-6.02.18-1.07.12-1.85.31-2.34.56-.88.5-1.32,1.29-1.32,2.39,0,2.11,1.25,3.16,3.74,3.16,1.92,0,3.38-.43,4.41-1.29,1.02-.86,1.53-2.01,1.53-3.45v-1.55Z"/><path class="uuid-b0ce5e34-cd8c-47cb-b6ad-e40206d302a1" d="M53.81,7.17v2.16c-.26-.02-.53-.03-.81-.03-1.46,0-2.65.44-3.55,1.31s-1.36,2.14-1.36,3.79v9.33h-2.29V7.3h2.2v2.55c.39-.71,1.02-1.34,1.9-1.89.88-.55,2-.82,3.36-.82l.55.03Z"/><path class="uuid-b0ce5e34-cd8c-47cb-b6ad-e40206d302a1" d="M57.35,21.58c-1.5-1.69-2.24-3.71-2.24-6.05s.75-4.37,2.24-6.07c1.5-1.7,3.45-2.55,5.86-2.55,2.11,0,3.83.6,5.17,1.79,1.33,1.19,2.17,2.67,2.52,4.44h-2.32c-.34-1.29-.98-2.31-1.9-3.05-.93-.74-2.08-1.11-3.45-1.11-1.72,0-3.12.61-4.18,1.84s-1.6,2.8-1.6,4.71.53,3.45,1.6,4.68c1.07,1.23,2.46,1.84,4.18,1.84,1.38,0,2.53-.37,3.45-1.11.93-.74,1.56-1.76,1.9-3.05h2.32c-.34,1.76-1.18,3.24-2.52,4.44-1.33,1.19-3.06,1.79-5.17,1.79-2.41,0-4.36-.84-5.86-2.53Z"/><path class="uuid-b0ce5e34-cd8c-47cb-b6ad-e40206d302a1" d="M79.3,24.12c-1.87,0-3.3-.46-4.28-1.37-.98-.91-1.47-2.13-1.47-3.63,0-.99.26-1.87.79-2.65.53-.77,1.25-1.34,2.18-1.71.77-.3,1.78-.5,3-.6,1.23-.1,3.22-.15,5.97-.15v-1.07c0-2.71-1.55-4.07-4.65-4.07-2.67,0-4.22,1.09-4.65,3.26h-2.23c.24-1.59.92-2.86,2.05-3.81,1.13-.95,2.77-1.42,4.92-1.42,2.3,0,4.02.54,5.15,1.61,1.13,1.08,1.7,2.56,1.7,4.45v10.75h-2.2v-2.39c-1.14,1.85-3.24,2.78-6.3,2.78ZM85.5,15.92c-2.95,0-4.96.06-6.02.18-1.07.12-1.85.31-2.34.56-.88.5-1.32,1.29-1.32,2.39,0,2.11,1.25,3.16,3.74,3.16,1.92,0,3.38-.43,4.41-1.29,1.02-.86,1.53-2.01,1.53-3.45v-1.55Z"/><path class="uuid-b0ce5e34-cd8c-47cb-b6ad-e40206d302a1" d="M104.45,10.27V0h2.29v23.73h-2.2v-3.03c-1.23,2.28-3.3,3.42-6.23,3.42-2.41,0-4.3-.83-5.68-2.5-1.38-1.67-2.07-3.7-2.07-6.09s.69-4.45,2.07-6.12c1.38-1.67,3.27-2.5,5.68-2.5,2.84,0,4.89,1.12,6.13,3.36ZM104.55,15.53c0-1.89-.52-3.46-1.55-4.7-1.03-1.24-2.44-1.86-4.23-1.86s-3.21.62-4.28,1.87c-1.07,1.25-1.6,2.81-1.6,4.68s.53,3.4,1.6,4.65c1.07,1.25,2.49,1.87,4.28,1.87s3.2-.62,4.23-1.87c1.03-1.25,1.55-2.8,1.55-4.65Z"/><path class="uuid-b0ce5e34-cd8c-47cb-b6ad-e40206d302a1" d="M109.92,9.23v-1.94h5v16.43h-2.29v-14.49h-2.71ZM114.98,2.79c-.31.29-.71.44-1.18.44s-.87-.15-1.18-.44c-.31-.29-.47-.66-.47-1.11v-.13c0-.24.04-.44.13-.61.3-.62.81-.94,1.52-.94.47,0,.87.16,1.18.47.31.31.47.71.47,1.18s-.16.86-.47,1.15Z"/><path class="uuid-b0ce5e34-cd8c-47cb-b6ad-e40206d302a1" d="M124.55,24.12c-1.87,0-3.3-.46-4.28-1.37-.98-.91-1.47-2.13-1.47-3.63,0-.99.26-1.87.79-2.65.53-.77,1.25-1.34,2.18-1.71.77-.3,1.78-.5,3-.6,1.23-.1,3.22-.15,5.97-.15v-1.07c0-2.71-1.55-4.07-4.65-4.07-2.67,0-4.22,1.09-4.65,3.26h-2.23c.24-1.59.92-2.86,2.05-3.81,1.13-.95,2.77-1.42,4.92-1.42,2.3,0,4.02.54,5.15,1.61,1.13,1.08,1.7,2.56,1.7,4.45v10.75h-2.2v-2.39c-1.14,1.85-3.24,2.78-6.3,2.78ZM130.75,15.92c-2.95,0-4.96.06-6.02.18-1.07.12-1.85.31-2.34.56-.88.5-1.32,1.29-1.32,2.39,0,2.11,1.25,3.16,3.74,3.16,1.92,0,3.38-.43,4.41-1.29,1.02-.86,1.53-2.01,1.53-3.45v-1.55Z"/><polygon class="uuid-b0ce5e34-cd8c-47cb-b6ad-e40206d302a1" points=".76 27.16 4.84 27.16 6.6 24.12 18.15 24.12 10.33 10.57 .76 27.16"/><polygon class="uuid-b0ce5e34-cd8c-47cb-b6ad-e40206d302a1" points="2.53 17 3.49 15.34 8.29 7.03 8.57 6.53 10.33 3.49 6.24 3.49 4.2 7.03 0 7.03 0 16.06 0 21.39 .76 20.07 2.53 17"/><polygon class="uuid-b0ce5e34-cd8c-47cb-b6ad-e40206d302a1" points="20.47 7.03 20.47 7.03 16.47 7.03 14.01 7.03 12.38 7.03 12.37 7.03 17.17 15.34 17.81 16.44 18.13 17 19.9 20.07 20.66 21.39 20.66 16.06 20.66 7.03 20.47 7.03"/></g></svg>