<?xml version="1.0" encoding="UTF-8"?><svg id="uuid-569eadfa-fac4-48ce-a6ff-99bc48a993d6" xmlns="http://www.w3.org/2000/svg" viewBox="0 0 149.75 17.99"><g id="uuid-463b60f3-6573-4403-9dba-9ed301d21533"><polygon points="39.63 14.32 39.29 14.32 32.7 0 26.25 0 26.25 17.51 29.9 17.51 29.9 3.2 30.23 3.2 36.83 17.51 43.32 17.51 43.32 0 39.63 0 39.63 14.32"/><path d="M57.6,5.93c-.62-.62-1.38-1.11-2.27-1.47-.89-.36-1.9-.54-3.03-.54s-2.1.18-3,.54c-.9.36-1.66.85-2.29,1.47-.63.62-1.11,1.35-1.45,2.17-.34.82-.5,1.69-.5,2.6v.55c0,.9.16,1.75.48,2.55.32.81.79,1.53,1.41,2.16.62.63,1.38,1.13,2.28,1.49.89.36,1.92.54,3.07.54s2.2-.18,3.09-.54c.89-.36,1.65-.85,2.27-1.49.62-.63,1.08-1.35,1.4-2.16.32-.81.48-1.66.48-2.55v-.55c0-.91-.17-1.78-.5-2.6-.34-.82-.82-1.55-1.44-2.17ZM55.3,12.91c-.26.58-.63,1.02-1.13,1.34-.5.32-1.12.48-1.87.48s-1.33-.16-1.85-.48c-.51-.32-.9-.77-1.15-1.34-.26-.58-.38-1.21-.38-1.92,0-.75.13-1.41.4-1.98.26-.57.65-1.01,1.16-1.34.51-.33,1.12-.49,1.82-.49s1.33.16,1.83.49c.5.33.89.78,1.15,1.34.26.57.4,1.23.4,1.98,0,.7-.13,1.34-.38,1.92Z"/><path d="M75.29.82h-3.57v3.38h-3.74c-.75,0-1.41.17-1.99.5-.58.34-1.03.9-1.35,1.7-.23.55-.37,1.26-.44,2.1v-4.14h-2.95v13.14h3.86v-7.86c0-.7.18-1.23.54-1.58.36-.35.88-.53,1.57-.53h4.49v4.84c-.01,1.33.18,2.38.57,3.15.38.78.98,1.33,1.8,1.67.82.34,1.89.5,3.21.5h1.85v-3.26h-1.94c-.61,0-1.08-.16-1.4-.49-.33-.33-.49-.8-.49-1.43v-4.99h3.84v-3.33h-3.84V.82Z"/><path d="M88.82,3.96h-.17c-.99,0-1.81.24-2.47.71-.61.44-1.08,1.07-1.41,1.89V0h-3.86v17.5h3.86v-7.58c0-.75.22-1.36.66-1.82.44-.46,1.02-.7,1.74-.7s1.24.22,1.65.65c.42.43.62,1.01.62,1.73v7.72h3.86v-7.48c0-1.98-.38-3.49-1.15-4.52-.77-1.03-1.88-1.55-3.33-1.55Z"/><path d="M108.19,5.87c-.51-.6-1.13-1.06-1.86-1.39-.73-.33-1.54-.49-2.43-.49-1.02,0-1.93.23-2.73.68-.71.41-1.29.99-1.73,1.75V0h-3.86v17.5h3.07v-2.86c.08.22.18.44.29.64.46.87,1.1,1.53,1.92,1.98.82.45,1.76.67,2.83.67.94,0,1.79-.17,2.54-.5.75-.34,1.39-.81,1.93-1.43.54-.62.94-1.33,1.22-2.16.28-.82.42-1.71.42-2.67v-.53c0-.96-.14-1.85-.42-2.66-.28-.82-.68-1.52-1.19-2.12ZM105.53,12.89c-.27.58-.65,1.04-1.14,1.35-.49.32-1.06.48-1.71.48-.54,0-1.07-.13-1.58-.38-.51-.26-.93-.63-1.26-1.11-.33-.49-.49-1.07-.49-1.76v-.89c0-.7.16-1.31.47-1.82.31-.51.72-.9,1.23-1.16.51-.26,1.05-.4,1.63-.4.66,0,1.23.15,1.71.46.49.3.87.74,1.14,1.29.27.56.41,1.21.41,1.97s-.14,1.39-.41,1.98Z"/><path d="M119.67,4.73c-.92-.38-2.05-.58-3.39-.58-.46,0-.96,0-1.49.02-.53.02-1.04.04-1.53.07-.5.03-.93.06-1.32.1v3.24c.5-.03,1.05-.06,1.67-.08.62-.02,1.21-.04,1.79-.06.58-.02,1.04-.02,1.39-.02.7,0,1.21.16,1.53.49.32.33.48.84.48,1.52v.02h-2.37c-1.17,0-2.2.15-3.09.44-.9.3-1.59.75-2.09,1.37-.5.62-.74,1.4-.74,2.36,0,.88.2,1.63.6,2.27.4.63.95,1.11,1.67,1.45.71.34,1.54.5,2.48.5s1.68-.17,2.31-.5c.63-.34,1.13-.82,1.49-1.44.16-.28.29-.59.4-.92v2.53h3.04v-8.06c0-1.21-.24-2.21-.72-2.98-.48-.78-1.18-1.35-2.1-1.74ZM117.56,14.96c-.34.15-.73.23-1.16.23-.67,0-1.19-.16-1.55-.49-.36-.33-.54-.76-.54-1.28,0-.56.18-1,.54-1.33.36-.33.88-.49,1.55-.49h2.4v1.05c-.03.66-.16,1.17-.38,1.53-.22.37-.51.63-.85.78Z"/><path d="M134.28,10.72c-.9-.72-2.15-1.17-3.76-1.34l-1.03-.1c-.69-.08-1.18-.22-1.49-.41-.3-.19-.46-.47-.46-.84s.18-.69.53-.91c.35-.22.82-.34,1.41-.34.73,0,1.3.15,1.69.46.39.3.61.66.66,1.08h3.43c-.05-1.41-.59-2.48-1.63-3.22-1.04-.74-2.41-1.11-4.1-1.11-1.05,0-1.99.16-2.82.48-.82.32-1.47.79-1.93,1.41-.46.62-.7,1.4-.7,2.33,0,1.14.4,2.06,1.19,2.77.79.71,1.98,1.15,3.56,1.31l1.03.12c.85.08,1.44.24,1.79.47.34.23.52.54.52.92,0,.43-.22.76-.66.99-.44.23-.99.35-1.67.35-.88,0-1.54-.16-1.98-.49-.44-.33-.69-.7-.76-1.11h-3.4c.06,1.39.62,2.47,1.68,3.25,1.05.77,2.52,1.16,4.39,1.16,1.18,0,2.21-.18,3.09-.53.88-.35,1.56-.85,2.04-1.5.48-.65.72-1.41.72-2.29,0-1.21-.45-2.18-1.34-2.9Z"/><path d="M149.75,10.65c0-1.2-.26-2.31-.77-3.32-.51-1.01-1.25-1.84-2.22-2.47-.97-.63-2.15-.95-3.56-.95-1.07,0-2.03.19-2.86.56-.84.38-1.54.88-2.11,1.52-.57.64-1,1.36-1.29,2.17-.3.81-.44,1.65-.44,2.53v.48c0,.85.15,1.67.44,2.48.3.81.73,1.54,1.31,2.19.58.66,1.29,1.17,2.15,1.56.85.38,1.84.58,2.96.58s2.08-.2,2.92-.59c.85-.39,1.55-.93,2.11-1.62.56-.69.93-1.47,1.13-2.35h-3.52c-.16.4-.46.74-.91,1.01-.45.27-1.02.41-1.73.41-.77,0-1.39-.16-1.87-.48-.48-.32-.83-.77-1.05-1.35-.12-.32-.21-.68-.27-1.07h9.59v-1.29ZM140.45,8.82c.24-.58.59-1.02,1.05-1.32.46-.3,1.03-.44,1.7-.44s1.2.15,1.64.44c.44.3.77.72.98,1.27.12.3.2.63.25.99h-5.9c.06-.35.15-.66.26-.95Z"/><polygon points="10.94 0 0 0 4.38 4.4 0 8.76 0 17.52 2.19 17.52 10.94 8.76 10.94 2.93 10.94 0"/><polygon points="21.88 8.76 21.88 0 19.69 0 10.94 8.76 10.94 14.59 10.94 17.52 21.88 17.52 17.5 13.11 21.88 8.76"/></g></svg>