<?xml version="1.0" encoding="UTF-8"?><svg id="uuid-1c056502-2bf0-4a99-9ad6-8e060565b81c" xmlns="http://www.w3.org/2000/svg" viewBox="0 0 121.69 31.95"><defs><style>.uuid-58ae7f27-bdee-4094-8fed-00d00c391634{fill:#fff;}</style></defs><g id="uuid-64be7d1e-4e42-480e-804f-924eca050e24"><path class="uuid-58ae7f27-bdee-4094-8fed-00d00c391634" d="M13.9,24.7h-3.72c1.03-1.24,2.61-1.28,3.72,0Z"/><path class="uuid-58ae7f27-bdee-4094-8fed-00d00c391634" d="M16.67,21.31c-1.31-1.19-2.64-1.28-4.17-.91-.39.09-.98-.66-1.53-1.07-1.38.85-1.45,2.08.16,3.39-.39.15-.68.27-.98.36-.71.21-1.44.35-2.14.59-.89.3-2.14.48-.87,1.86.11.12-.14.57-.25.89-.44.08-.87.15-1.04.18-.55-.71-1-1.25-1.4-1.84-.32-.47-.55-1.01-.86-1.49-.42-.65-.75-1.49-1.36-1.87-1.17-.75-.75-1.82-.36-2.41,1.15-1.74-.29-2.75-.82-4.02-.34-.81-.68-1.63-1.05-2.53,2.34-.79,3.71.46,4.98,1.62,1.03.94,3.06,1.29,4.3.5.37-.24.94-.22,1.42-.25,1.04-.06,2.49-1.58,2.37-2.6-.02-.22-.29-.44-.49-.61-2.03-1.69-4.4-2.19-6.92-1.89,0-.86.2-1.7-.04-2.38-.56-1.58-1.24-3.13-2.06-4.59-.33-.6-.25-1.03.1-1.36C4.08.48,4.73-.07,5.19,0c1.67.25,3.3.77,4.96,1.14.65.15,1.35.09,1.99.26,2.5.66,2.87,2.79,3.27,4.87.25,1.32.4,2.65.68,3.95.22,1,.15,1.74-1.01,2.04-1.09.27-1.1.96-.68,1.85.83,1.77,1.68,3.54,2.41,5.36.2.5.03,1.15-.14,1.85Z"/><path class="uuid-58ae7f27-bdee-4094-8fed-00d00c391634" d="M9.47,27.52c1.48,1.16,3.98,1.54,2.42,4.42-1.28-.73-2.53-1.44-3.78-2.18-.41-1.11-.79-2.22-1.18-3.34,2.1-1.17,4.21-.73,6.43.28v1.19c-1.31-.18-2.34-1.13-3.89-.38Z"/><path class="uuid-58ae7f27-bdee-4094-8fed-00d00c391634" d="M35.33,17.3v-2.65h45.77v2.65h-45.77Z"/><path class="uuid-58ae7f27-bdee-4094-8fed-00d00c391634" d="M99.52,30.13V1.82h10.06c4.04,0,7.07,1.28,9.09,3.84,2.02,2.56,3.03,6.03,3.03,10.41s-1.05,7.75-3.15,10.27c-2.1,2.52-5.18,3.78-9.24,3.78h-9.78ZM102.17,27.79h7.05c3.27,0,5.71-1.02,7.3-3.07,1.6-2.05,2.4-4.93,2.4-8.65,0-7.94-3.14-11.92-9.42-11.92h-7.32v23.64Z"/></g></svg>