<?xml version="1.0" encoding="UTF-8"?><svg id="uuid-944497b6-8223-4dcc-9589-184dc40b14a7" xmlns="http://www.w3.org/2000/svg" viewBox="0 0 136.89 24.1"><defs><style>.uuid-0f988a1a-27fd-49a6-945e-68674b8f411d{fill:#0a0a0a;}</style></defs><g id="uuid-3c9f074a-9c7f-4d00-b82b-def55125d485"><path class="uuid-0f988a1a-27fd-49a6-945e-68674b8f411d" d="M136.08,21.01c.25.14.45.34.59.59.14.25.22.53.22.84s-.07.59-.22.84c-.15.25-.35.46-.6.6-.25.15-.53.22-.84.22-.31,0-.58-.07-.84-.22-.25-.15-.45-.35-.6-.6-.15-.25-.22-.53-.22-.83s.07-.58.22-.83c.14-.25.34-.45.6-.6.25-.15.53-.22.84-.22s.59.07.84.21ZM135.98,23.73c.22-.13.4-.31.53-.54.13-.23.2-.48.2-.75s-.07-.52-.19-.75c-.13-.22-.3-.4-.53-.53-.22-.13-.47-.19-.75-.19s-.53.07-.76.2-.4.31-.53.54c-.13.23-.19.48-.19.75s.07.52.2.75c.13.23.31.4.53.54.22.13.47.2.75.2s.52-.07.75-.2ZM135.96,22.49c-.07.1-.18.18-.31.22l.44.67h-.25s-.41-.63-.41-.63c-.03,0-.06,0-.11,0h-.49s0,.63,0,.63h-.24s0-1.89,0-1.89h.73c.23,0,.41.05.55.17.13.11.2.27.2.46,0,.14-.04.27-.11.37ZM135.69,22.45c.09-.08.14-.18.14-.32s-.05-.24-.14-.31c-.09-.07-.22-.11-.39-.11h-.48s0,.85,0,.85h.48c.17,0,.29-.04.39-.11Z"/><path class="uuid-0f988a1a-27fd-49a6-945e-68674b8f411d" d="M31.83,6.55v2.28c.39-.75,1.05-1.38,1.97-1.91.92-.51,2.02-.77,3.32-.77,2.03,0,3.6.62,4.71,1.85,1.11,1.24,1.67,2.88,1.67,4.93v10.77h-3.93v-10.27c0-1.21-.28-2.17-.84-2.86-.56-.69-1.42-1.04-2.56-1.04-1.26,0-2.24.37-2.96,1.12-.72.75-1.07,1.78-1.07,3.11v9.95h-3.93V6.55h3.64Z"/><path class="uuid-0f988a1a-27fd-49a6-945e-68674b8f411d" d="M54.83,24.1c-2.65,0-4.79-.87-6.43-2.61-1.64-1.74-2.46-3.86-2.46-6.34s.82-4.61,2.46-6.36c1.64-1.75,3.78-2.63,6.43-2.63s4.82.88,6.46,2.63c1.64,1.75,2.46,3.87,2.46,6.36s-.82,4.61-2.46,6.34c-1.64,1.74-3.79,2.61-6.46,2.61ZM49.87,15.15c0,1.63.47,2.95,1.4,3.96.94,1.01,2.12,1.52,3.55,1.52s2.65-.51,3.58-1.52c.94-1.01,1.4-2.33,1.4-3.96s-.47-2.99-1.4-4-2.13-1.52-3.58-1.52-2.62.51-3.55,1.52c-.94,1.01-1.4,2.35-1.4,4ZM53.78,2.22c0,1.21-.98,2.18-2.18,2.18s-2.18-.98-2.18-2.18S50.39.04,51.59.04s2.18.98,2.18,2.18ZM60.28,2.22c0,1.21-.98,2.18-2.18,2.18s-2.18-.98-2.18-2.18S56.89.04,58.09.04s2.18.98,2.18,2.18Z"/><path class="uuid-0f988a1a-27fd-49a6-945e-68674b8f411d" d="M75.51,6.42v3.67c-.31-.05-.61-.06-.89-.06-2.95,0-4.43,1.58-4.43,4.75v8.92h-3.93V6.55h3.64v2.38c.97-1.7,2.65-2.55,5.05-2.55l.56.03Z"/><path class="uuid-0f988a1a-27fd-49a6-945e-68674b8f411d" d="M86.24,19.05l4.75-12.49h4.06l-7.01,17.15h-3.7l-6.97-17.15h4.16l4.71,12.49Z"/><path class="uuid-0f988a1a-27fd-49a6-945e-68674b8f411d" d="M101.68,24.1c-2.03,0-3.54-.47-4.53-1.42-.99-.95-1.49-2.2-1.49-3.77,0-2.97,2.2-4.78,6.59-5.41l4.95-.7v-.26c0-2.09-1.22-3.14-3.67-3.14-2.14,0-3.35.85-3.63,2.55h-3.84c.18-1.68.88-3.06,2.1-4.15,1.22-1.09,3.05-1.64,5.47-1.64s4.29.56,5.53,1.68c1.24,1.13,1.87,2.7,1.87,4.73v7.9c0,1.39.17,2.47.49,3.24h-3.73s-.05-.08-.08-.25c-.03-.17-.07-.43-.1-.81-.03-.37-.05-.77-.05-1.19-1.17,1.76-3.13,2.64-5.88,2.64ZM107.2,15.67l-4.56.71c-2.14.33-3.21,1.13-3.21,2.42,0,1.49,1.01,2.23,3.04,2.23,1.52,0,2.69-.41,3.5-1.21.82-.81,1.22-1.83,1.22-3.06v-1.09Z"/><path class="uuid-0f988a1a-27fd-49a6-945e-68674b8f411d" d="M125.74,6.55h4.96l-6.64,7.24,7.14,9.91h-4.69l-5.04-7.35-3.02,3.24v4.1h-3.93V.06h3.93v14.86l7.3-8.36Z"/><polygon class="uuid-0f988a1a-27fd-49a6-945e-68674b8f411d" points="21.47 10.44 21.47 6.55 0 6.55 0 10.44 2.58 10.44 2.58 9.14 4.96 9.14 8.51 15.38 2.58 15.38 2.58 21.13 0 21.13 0 23.71 4.96 23.71 8.51 17.96 12.96 17.96 16.51 23.71 21.47 23.71 21.47 21.13 18.89 21.13 18.89 15.38 12.96 15.38 16.51 9.14 18.89 9.14 18.89 10.44 21.47 10.44"/><circle class="uuid-0f988a1a-27fd-49a6-945e-68674b8f411d" cx="10.73" cy="2.22" r="2.22"/></g></svg>